<?xml version="1.0" standalone="no"?>
<!DOCTYPE svg PUBLIC "-//W3C//DTD SVG 20010904//EN"
 "http://www.w3.org/TR/2001/REC-SVG-20010904/DTD/svg10.dtd">
<svg version="1.0" xmlns="http://www.w3.org/2000/svg"
 width="640.000000pt" height="640.000000pt" viewBox="0 0 640.000000 640.000000"
 preserveAspectRatio="xMidYMid meet">

<g transform="translate(0.000000,640.000000) scale(0.100000,-0.100000)"
fill="#000000" stroke="none">
<path d="M1885 4737 c-106 -35 -131 -60 -179 -179 -17 -42 -7 -51 17 -15 42
64 123 116 180 117 36 0 57 -39 36 -68 -50 -69 -156 -185 -180 -197 -31 -16
-79 -6 -79 17 0 9 -3 9 -12 0 -7 -7 -13 -42 -14 -80 -1 -37 -9 -116 -19 -177
-23 -154 -21 -239 10 -331 28 -82 56 -143 83 -176 56 -69 81 -93 131 -127 93
-62 200 -91 342 -91 305 0 579 207 628 475 56 304 -102 592 -408 745 -127 64
-236 91 -376 96 -82 3 -133 0 -160 -9z m-85 -391 c0 -27 -26 -42 -46 -25 -18
15 0 49 26 49 14 0 20 -7 20 -24z"/>
<path d="M3032 4123 c-69 -34 -102 -125 -77 -210 8 -27 26 -60 39 -73 33 -30
110 -39 154 -16 62 32 99 156 69 226 l-16 35 4 -37 c3 -31 -1 -41 -22 -58 -49
-39 -97 -17 -112 52 -8 35 9 61 54 86 34 19 -54 14 -93 -5z"/>
<path d="M2880 3481 c-25 -14 -79 -38 -120 -53 -57 -20 -68 -27 -45 -27 17 0
57 11 90 24 l60 25 17 -23 c52 -68 144 -302 178 -452 12 -55 23 -104 25 -110
1 -5 26 -18 55 -28 47 -17 50 -20 33 -32 -17 -13 -16 -14 11 -24 21 -8 26 -16
21 -29 -5 -13 -4 -14 6 -5 10 10 10 19 1 40 -12 26 -11 27 3 8 9 -11 14 -30
10 -42 -3 -12 -1 -24 4 -27 14 -9 19 16 9 43 -5 13 -7 26 -4 28 6 6 133 -60
195 -101 l54 -37 36 34 c20 19 86 75 146 123 301 243 325 265 325 296 0 39
-36 73 -85 81 -22 4 -43 5 -46 4 -3 -1 -13 4 -21 11 -10 8 -29 10 -56 6 -25
-4 -42 -2 -46 5 -4 6 -18 11 -32 11 -14 0 -23 4 -20 9 3 4 -20 8 -50 7 -31 -1
-64 4 -73 10 -26 18 -133 36 -141 24 -5 -8 -30 -7 -81 0 -41 6 -91 14 -113 17
-42 6 -82 -10 -89 -36 -3 -9 -5 1 -6 21 -1 38 -15 58 -25 36 -4 -9 -5 -8 -5 2
2 27 -1 38 -13 52 -7 8 -20 27 -28 43 -9 17 -38 41 -75 60 l-60 32 -45 -26z
m649 -231 c24 -6 51 -15 60 -21 12 -8 10 -9 -9 -4 -14 4 -51 12 -83 20 -32 7
-61 16 -65 20 -8 8 29 3 97 -15z m121 -20 c0 -5 -7 -10 -15 -10 -8 0 -15 5
-15 10 0 6 7 10 15 10 8 0 15 -4 15 -10z m-490 -65 c0 -8 -7 -15 -16 -15 -14
0 -14 3 -4 15 7 8 14 15 16 15 2 0 4 -7 4 -15z"/>
<path d="M2085 3369 c19 -62 112 -93 264 -87 112 5 127 9 200 66 37 29 41 34
20 29 -151 -37 -376 -33 -473 8 -16 7 -17 5 -11 -16z"/>
<path d="M1660 3225 c0 -3 7 -16 15 -29 9 -13 15 -28 14 -32 -1 -5 2 -18 6
-28 6 -13 4 -21 -4 -24 -9 -3 -5 -12 11 -29 20 -21 23 -37 26 -119 l4 -94 -74
6 c-40 4 -77 10 -82 15 -6 5 -27 9 -49 9 -21 0 -36 4 -33 8 2 4 -10 6 -27 4
-18 -2 -75 2 -127 8 -52 7 -115 15 -140 18 -43 5 -44 6 -15 13 19 4 -6 7 -69
8 -54 0 -124 7 -155 15 -31 8 -90 17 -131 21 -73 6 -193 23 -315 45 -33 6 -75
14 -92 17 -38 6 -34 23 5 24 15 0 21 3 15 6 -7 2 -34 0 -60 -5 -54 -12 -153
-4 -131 9 7 5 9 9 3 9 -20 0 -38 -18 -32 -33 9 -23 257 -231 432 -363 218
-164 654 -419 847 -495 l53 -21 33 39 c119 136 217 514 192 743 -12 113 -48
214 -89 248 -15 12 -31 16 -31 7z"/>
<path d="M1872 3183 c28 -61 45 -82 65 -88 13 -3 29 -3 35 1 6 4 31 8 56 10
25 1 68 8 96 15 l51 13 -101 21 c-125 27 -207 38 -202 28z"/>
<path d="M945 3160 c27 -12 43 -12 25 0 -8 5 -22 9 -30 9 -10 0 -8 -3 5 -9z"/>
<path d="M902 3140 c0 -14 2 -19 5 -12 2 6 2 18 0 25 -3 6 -5 1 -5 -13z"/>
<path d="M2290 2904 c-69 -19 -105 -23 -190 -21 -58 2 -112 7 -121 11 -14 6
-16 -4 -17 -81 -3 -202 -83 -460 -193 -620 -16 -23 -29 -46 -29 -52 0 -14 250
-85 372 -107 34 -6 42 -15 114 -127 42 -67 96 -141 118 -165 72 -75 183 -118
491 -187 88 -19 252 -58 365 -86 224 -56 265 -58 308 -16 l24 24 -20 46 c-11
25 -69 123 -127 217 -59 94 -108 179 -109 188 -1 15 16 18 124 23 257 14 374
87 411 260 l11 51 -48 49 c-27 27 -53 49 -58 49 -5 0 -17 6 -25 14 -21 19
-191 106 -206 106 -8 0 -15 -26 -19 -72 -12 -129 -28 -189 -76 -283 -49 -96
-105 -175 -124 -175 -6 0 -26 26 -45 56 l-34 56 37 72 c21 42 44 112 56 167
23 108 27 265 8 267 -18 2 -148 48 -155 56 -4 3 -14 6 -24 6 -12 0 -16 5 -13
15 4 8 9 13 13 10 14 -8 11 91 -3 131 l-14 39 -7 -40 c-25 -131 -134 -217
-292 -232 -67 -6 -68 -7 -53 -49 12 -31 17 -171 6 -181 -7 -7 -42 1 -206 45
l-105 28 -12 65 c-24 130 -5 257 45 303 18 15 17 19 -17 90 -41 86 -36 84
-161 50z m-161 -440 c31 -7 43 -24 16 -24 -21 0 -19 -44 2 -78 9 -15 34 -48
55 -73 21 -26 38 -51 38 -57 0 -9 46 -71 108 -147 4 -5 23 -32 42 -60 53 -79
140 -174 154 -169 18 7 66 -13 66 -28 0 -17 64 -68 85 -68 9 0 31 -10 47 -22
22 -15 43 -21 78 -19 41 1 50 -2 55 -20 5 -14 1 -25 -12 -34 -17 -13 -15 -15
21 -30 21 -9 36 -19 33 -21 -3 -3 -14 -1 -25 5 -11 6 -29 8 -39 5 -13 -4 -14
-3 -5 3 9 7 -2 10 -32 10 -29 0 -50 6 -62 17 -13 13 -26 16 -53 11 -28 -4 -33
-3 -21 5 12 9 11 10 -8 5 -12 -4 -36 0 -54 9 -17 9 -37 16 -45 16 -52 0 -183
103 -219 172 -9 18 -20 35 -23 38 -12 10 -121 185 -121 195 0 2 -11 16 -25 31
-14 15 -25 33 -25 40 0 7 -3 14 -7 16 -19 8 -84 118 -77 129 4 7 3 9 -4 5 -15
-9 -65 79 -58 102 11 34 56 48 115 36z m824 -420 c-3 -8 -12 -14 -19 -14 -20
0 -30 30 -13 40 17 11 40 -7 32 -26z m-223 -69 c0 -8 -4 -15 -9 -15 -13 0 -22
16 -14 24 11 11 23 6 23 -9z m460 -175 c0 -5 -4 -10 -10 -10 -5 0 -10 5 -10
10 0 6 5 10 10 10 6 0 10 -4 10 -10z m-26 -176 c23 -9 20 -34 -4 -34 -13 0
-20 7 -20 20 0 22 1 23 24 14z"/>
<path d="M3168 2723 c7 -3 16 -2 19 1 4 3 -2 6 -13 5 -11 0 -14 -3 -6 -6z"/>
<path d="M3252 2705 c0 -16 2 -22 5 -12 2 9 2 23 0 30 -3 6 -5 -1 -5 -18z"/>
</g>
</svg>
