<svg width="826" height="352" viewBox="0 0 826 352" fill="none" xmlns="http://www.w3.org/2000/svg">
<path d="M413 1.50049C526.894 1.50049 629.936 21.1761 704.447 52.9292C741.706 68.8069 771.761 87.6755 792.479 108.55C813.192 129.419 824.5 152.21 824.5 176C824.5 199.791 813.192 222.582 792.479 243.451C771.761 264.326 741.706 283.194 704.447 299.072C629.936 330.825 526.894 350.5 413 350.5C299.106 350.5 196.064 330.825 121.553 299.072C84.2942 283.194 54.2393 264.326 33.5205 243.451C12.8079 222.582 1.5 199.791 1.5 176C1.5 152.21 12.8079 129.419 33.5205 108.55C54.2393 87.6755 84.2942 68.8069 121.553 52.9292C196.064 21.1761 299.106 1.50049 413 1.50049Z" stroke="white" stroke-width="3"/>
<path d="M320 47.5005C408.219 47.5005 488.017 62.198 545.704 85.9038C574.551 97.7581 597.797 111.835 613.808 127.39C629.814 142.941 638.5 159.874 638.5 177.5C638.5 195.127 629.814 212.06 613.808 227.611C597.797 243.166 574.551 257.243 545.704 269.097C488.017 292.803 408.219 307.5 320 307.5C231.781 307.5 151.983 292.803 94.2959 269.097C65.449 257.243 42.2029 243.166 26.1924 227.611C10.1865 212.06 1.5 195.127 1.5 177.5C1.5 159.874 10.1865 142.941 26.1924 127.39C42.2029 111.835 65.449 97.7581 94.2959 85.9038C151.983 62.198 231.781 47.5005 320 47.5005Z" stroke="white" stroke-width="3"/>
<path d="M506 47.5005C594.219 47.5005 674.017 62.198 731.704 85.9038C760.551 97.7581 783.797 111.835 799.808 127.39C815.814 142.941 824.5 159.874 824.5 177.5C824.5 195.127 815.814 212.06 799.808 227.611C783.797 243.166 760.551 257.243 731.704 269.097C674.017 292.803 594.219 307.5 506 307.5C417.781 307.5 337.983 292.803 280.296 269.097C251.449 257.243 228.203 243.166 212.192 227.611C196.186 212.06 187.5 195.127 187.5 177.5C187.5 159.874 196.186 142.941 212.192 127.39C228.203 111.835 251.449 97.7581 280.296 85.9038C337.983 62.198 417.781 47.5005 506 47.5005Z" stroke="white" stroke-width="3"/>
</svg>
